<mxfile host="app.diagrams.net" modified="2024-06-02T05:38:28.095Z" agent="Mozilla/5.0 (X11; Linux x86_64; rv:126.0) Gecko/20100101 Firefox/126.0" etag="_SYfQ0aPAAE-Cj8UP133" version="24.4.13" type="device">
  <diagram id="t25Kp6jmq_1cI3zwCiK2" name="Page-1">
    <mxGraphModel dx="1562" dy="856" grid="1" gridSize="10" guides="1" tooltips="1" connect="1" arrows="1" fold="1" page="1" pageScale="1" pageWidth="1000" pageHeight="1000" math="0" shadow="0">
      <root>
        <mxCell id="0" />
        <mxCell id="1" parent="0" />
        <mxCell id="T0KytU28zX8Ys8UfOtSf-32" value="saqi:Contributor" style="graphMlID=n4;shape=rect;rounded=1;arcsize=30;fillColor=#ffff00;strokeColor=#000000;strokeWidth=1.0;fontSize=11;" parent="1" vertex="1">
          <mxGeometry x="510" y="70" width="110" height="24" as="geometry" />
        </mxCell>
        <mxCell id="T0KytU28zX8Ys8UfOtSf-33" value="Prefixes" style="graphMlID=n0;shape=swimlane;startSize=20;fillColor=#b7b69e;strokeColor=#000000;strokeWidth=1.0;align=right;spacingRight=10;fontStyle=1;fontSize=11;" parent="1" vertex="1">
          <mxGeometry x="20" width="610" height="60" as="geometry" />
        </mxCell>
        <mxCell id="T0KytU28zX8Ys8UfOtSf-34" value="&lt;b&gt;saqi:&lt;/b&gt;&lt;b&gt;&lt;br&gt;&lt;/b&gt;&lt;b&gt;rdfs:&lt;br&gt;&lt;/b&gt;&lt;b&gt;&lt;br&gt;&lt;br&gt;&lt;/b&gt;" style="text;html=1;align=center;verticalAlign=middle;resizable=0;points=[];autosize=1;fontFamily=Courier New;" parent="T0KytU28zX8Ys8UfOtSf-33" vertex="1">
          <mxGeometry x="129.99645243734972" y="19" width="60" height="70" as="geometry" />
        </mxCell>
        <mxCell id="T0KytU28zX8Ys8UfOtSf-35" value="https://saqi-er24.netlify.app/saqi&lt;br&gt;https://www.w3.org/TR/rdf-schema" style="text;html=1;align=left;verticalAlign=middle;resizable=0;points=[];autosize=1;fontFamily=Courier New;rounded=1;glass=0;" parent="T0KytU28zX8Ys8UfOtSf-33" vertex="1">
          <mxGeometry x="180" y="20" width="270" height="40" as="geometry" />
        </mxCell>
        <mxCell id="T0KytU28zX8Ys8UfOtSf-142" value="saqi:AirPollution" style="graphMlID=n4;shape=rect;rounded=1;arcsize=30;fillColor=#ffff00;strokeColor=#000000;strokeWidth=1.0;fontSize=11;" parent="1" vertex="1">
          <mxGeometry x="340" y="150" width="130" height="24" as="geometry" />
        </mxCell>
        <mxCell id="T0KytU28zX8Ys8UfOtSf-143" value="" style="graphMlID=e0;rounded=0;endArrow=block;strokeColor=#000080;strokeWidth=1.0;startArrow=oval;startFill=1;endFill=1;fontSize=11;fontColor=#000080;exitX=1;exitY=0.5;exitDx=0;exitDy=0;entryX=0.5;entryY=1;entryDx=0;entryDy=0;edgeStyle=orthogonalEdgeStyle;" parent="1" source="T0KytU28zX8Ys8UfOtSf-142" target="T0KytU28zX8Ys8UfOtSf-32" edge="1">
          <mxGeometry relative="1" as="geometry">
            <mxPoint x="115" y="160" as="sourcePoint" />
            <mxPoint x="227.5" y="104" as="targetPoint" />
          </mxGeometry>
        </mxCell>
        <mxCell id="T0KytU28zX8Ys8UfOtSf-144" value="&lt;span style=&quot;color: rgb(0 , 0 , 128) ; font-family: &amp;quot;dialog&amp;quot; ; font-size: 11px ; background-color: rgb(248 , 249 , 250)&quot;&gt;saqi:hasContributor&lt;/span&gt;" style="text;html=1;align=center;verticalAlign=middle;resizable=0;points=[];labelBackgroundColor=#ffffff;fontSize=11;" parent="T0KytU28zX8Ys8UfOtSf-143" vertex="1" connectable="0">
          <mxGeometry x="-0.0174" y="2" relative="1" as="geometry">
            <mxPoint x="22" y="-30" as="offset" />
          </mxGeometry>
        </mxCell>
        <mxCell id="T0KytU28zX8Ys8UfOtSf-145" value="saqi:NaturalResourcesPollution" style="graphMlID=n4;shape=rect;rounded=1;arcsize=30;fillColor=#ffff00;strokeColor=#000000;strokeWidth=1.0;fontSize=11;" parent="1" vertex="1">
          <mxGeometry x="20" y="94" width="210" height="24" as="geometry" />
        </mxCell>
        <mxCell id="T0KytU28zX8Ys8UfOtSf-146" value="saqi:NonNaturalResourcesPollution" style="graphMlID=n4;shape=rect;rounded=1;arcsize=30;fillColor=#ffff00;strokeColor=#000000;strokeWidth=1.0;fontSize=11;" parent="1" vertex="1">
          <mxGeometry x="20" y="210" width="210" height="24" as="geometry" />
        </mxCell>
        <mxCell id="T0KytU28zX8Ys8UfOtSf-147" value="" style="endArrow=none;html=1;textDirection=ltr;fontSize=11;strokeWidth=1;exitX=0;exitY=0.5;exitDx=0;exitDy=0;endFill=0;entryX=1;entryY=0.5;entryDx=0;entryDy=0;startArrow=classic;startFill=1;rounded=0;edgeStyle=orthogonalEdgeStyle;" parent="1" source="T0KytU28zX8Ys8UfOtSf-142" target="T0KytU28zX8Ys8UfOtSf-145" edge="1">
          <mxGeometry width="50" height="50" relative="1" as="geometry">
            <mxPoint x="194.99999999999977" y="138" as="sourcePoint" />
            <mxPoint x="30" y="-7.999999999999886" as="targetPoint" />
          </mxGeometry>
        </mxCell>
        <mxCell id="T0KytU28zX8Ys8UfOtSf-148" value="rdfs:subClassOf" style="text;html=1;align=center;verticalAlign=middle;resizable=0;points=[];labelBackgroundColor=#ffffff;rotation=0;" parent="T0KytU28zX8Ys8UfOtSf-147" vertex="1" connectable="0">
          <mxGeometry x="-0.2211" relative="1" as="geometry">
            <mxPoint x="-5" y="-21" as="offset" />
          </mxGeometry>
        </mxCell>
        <mxCell id="T0KytU28zX8Ys8UfOtSf-149" value="" style="endArrow=none;html=1;textDirection=ltr;fontSize=11;strokeWidth=1;exitX=0;exitY=0.5;exitDx=0;exitDy=0;endFill=0;entryX=1;entryY=0.5;entryDx=0;entryDy=0;startArrow=classic;startFill=1;rounded=0;edgeStyle=orthogonalEdgeStyle;" parent="1" source="T0KytU28zX8Ys8UfOtSf-142" target="T0KytU28zX8Ys8UfOtSf-146" edge="1">
          <mxGeometry width="50" height="50" relative="1" as="geometry">
            <mxPoint x="111.11999999999989" y="140.78399999999988" as="sourcePoint" />
            <mxPoint x="304.99999999999994" y="289" as="targetPoint" />
          </mxGeometry>
        </mxCell>
        <mxCell id="T0KytU28zX8Ys8UfOtSf-150" value="rdfs:subClassOf" style="text;html=1;align=center;verticalAlign=middle;resizable=0;points=[];labelBackgroundColor=#ffffff;rotation=0;" parent="T0KytU28zX8Ys8UfOtSf-149" vertex="1" connectable="0">
          <mxGeometry x="-0.2211" relative="1" as="geometry">
            <mxPoint x="-6" y="18" as="offset" />
          </mxGeometry>
        </mxCell>
        <mxCell id="tVaDrdCdJ2JWzak5erRI-4" value="saqi:Government" style="graphMlID=n4;shape=rect;rounded=1;arcsize=30;fillColor=#ffff00;strokeColor=#000000;strokeWidth=1.0;fontSize=11;" parent="1" vertex="1">
          <mxGeometry x="240" y="280" width="120" height="24" as="geometry" />
        </mxCell>
        <mxCell id="tVaDrdCdJ2JWzak5erRI-6" value="" style="graphMlID=e0;rounded=0;endArrow=block;strokeColor=#000080;strokeWidth=1.0;startArrow=oval;startFill=1;endFill=1;fontSize=11;fontColor=#000080;exitX=0.5;exitY=0;exitDx=0;exitDy=0;entryX=0.5;entryY=1;entryDx=0;entryDy=0;edgeStyle=orthogonalEdgeStyle;" parent="1" source="tVaDrdCdJ2JWzak5erRI-4" target="T0KytU28zX8Ys8UfOtSf-142" edge="1">
          <mxGeometry relative="1" as="geometry">
            <mxPoint x="549.9999999999998" y="268.0000000000001" as="sourcePoint" />
            <mxPoint x="645.0000000000002" y="199.9999999999999" as="targetPoint" />
          </mxGeometry>
        </mxCell>
        <mxCell id="MxyRA1qKSKhkFTL3kQCl-1" value="saqi:InstitutionAgainstAirPollution" style="graphMlID=n4;shape=rect;rounded=1;arcsize=30;fillColor=#ffff00;strokeColor=#000000;strokeWidth=1.0;fontSize=11;" parent="1" vertex="1">
          <mxGeometry x="400" y="280" width="210" height="24" as="geometry" />
        </mxCell>
        <mxCell id="MxyRA1qKSKhkFTL3kQCl-2" value="" style="graphMlID=e0;rounded=0;endArrow=block;strokeColor=#000080;strokeWidth=1.0;startArrow=oval;startFill=1;endFill=1;fontSize=11;fontColor=#000080;exitX=0.5;exitY=0;exitDx=0;exitDy=0;entryX=0.5;entryY=1;entryDx=0;entryDy=0;edgeStyle=orthogonalEdgeStyle;" parent="1" source="MxyRA1qKSKhkFTL3kQCl-1" target="T0KytU28zX8Ys8UfOtSf-142" edge="1">
          <mxGeometry relative="1" as="geometry">
            <mxPoint x="285" y="290" as="sourcePoint" />
            <mxPoint x="405" y="184" as="targetPoint" />
          </mxGeometry>
        </mxCell>
        <mxCell id="MxyRA1qKSKhkFTL3kQCl-4" value="&lt;span style=&quot;color: rgb(0 , 0 , 128) ; font-family: &amp;quot;dialog&amp;quot; ; font-size: 11px ; background-color: rgb(248 , 249 , 250)&quot;&gt;saqi:takesActionAgainst&lt;/span&gt;" style="text;html=1;align=center;verticalAlign=middle;resizable=0;points=[];labelBackgroundColor=#ffffff;fontSize=11;" parent="1" vertex="1" connectable="0">
          <mxGeometry x="415" y="202" as="geometry" />
        </mxCell>
      </root>
    </mxGraphModel>
  </diagram>
</mxfile>
